<svg id="svg" version="1.1" xmlns="http://www.w3.org/2000/svg" xmlns:xlink="http://www.w3.org/1999/xlink" width="400" height="400" viewBox="0, 0, 400,400"><g id="svgg"><path id="path0" d="M106.291 65.842 C 106.180 65.954,105.615 66.096,105.037 66.157 C 104.084 66.259,103.495 67.000,104.367 67.000 C 104.568 67.000,104.883 67.150,105.067 67.333 C 105.250 67.517,105.220 67.630,105.000 67.586 C 103.307 67.244,103.394 59.825,103.495 195.873 C 103.572 298.580,103.691 324.220,104.095 324.511 C 104.468 324.781,104.439 324.825,103.983 324.682 C 103.490 324.528,103.377 324.821,103.422 326.144 C 103.508 328.711,103.543 328.797,104.500 328.846 C 105.317 328.889,105.326 328.911,104.600 329.093 C 103.725 329.311,103.216 329.908,103.206 330.727 C 103.202 331.070,103.475 331.167,103.988 331.004 C 104.732 330.768,104.744 330.817,104.197 331.871 C 103.364 333.477,104.249 334.383,106.004 333.721 C 106.665 333.471,107.103 333.433,106.977 333.637 C 106.669 334.135,108.011 334.620,108.340 334.129 C 108.764 333.497,110.003 333.167,109.895 333.714 C 109.762 334.392,166.243 334.628,167.056 333.954 C 167.457 333.621,167.600 333.620,167.600 333.951 C 167.600 334.243,168.648 334.400,170.600 334.400 C 172.730 334.400,173.602 334.255,173.606 333.900 C 173.610 333.548,173.699 333.532,173.906 333.847 C 174.354 334.528,176.163 334.290,176.485 333.507 C 176.656 333.090,177.015 332.908,177.385 333.049 C 177.723 333.179,178.000 333.086,178.000 332.843 C 178.000 332.599,177.814 332.400,177.586 332.400 C 177.300 332.400,177.300 332.160,177.586 331.626 C 178.235 330.414,178.103 329.593,177.300 329.843 C 176.633 330.050,176.633 330.039,177.300 329.610 C 177.685 329.363,178.000 328.899,178.000 328.580 C 178.000 328.178,178.459 327.998,179.500 327.994 C 181.217 327.987,181.476 327.845,182.776 326.200 C 183.298 325.540,183.613 325.315,183.475 325.700 C 183.336 326.090,183.417 326.400,183.659 326.400 C 184.091 326.400,183.975 325.248,183.407 323.895 C 183.173 323.339,183.257 323.247,183.807 323.458 C 184.420 323.693,184.469 323.541,184.225 322.162 C 184.072 321.303,183.975 320.060,184.010 319.400 C 184.359 312.655,184.351 86.106,184.001 82.406 C 183.700 79.226,183.695 77.768,183.983 77.672 C 184.641 77.453,184.469 76.000,183.786 76.000 C 183.296 76.000,183.258 75.839,183.600 75.200 C 183.925 74.593,183.904 74.399,183.514 74.394 C 183.154 74.390,183.180 74.274,183.600 74.008 C 184.120 73.679,184.100 73.534,183.444 72.914 C 183.028 72.522,182.825 72.444,182.994 72.743 C 183.228 73.158,183.092 73.220,182.416 73.005 C 181.782 72.804,181.230 72.990,180.466 73.661 C 179.437 74.564,179.439 74.553,180.531 73.344 L 181.662 72.091 179.831 72.298 L 178.000 72.504 178.000 69.596 C 178.000 67.296,177.854 66.577,177.300 66.157 C 176.500 65.550,175.848 65.430,176.169 65.950 C 176.288 66.142,175.571 66.126,174.577 65.914 C 173.256 65.632,172.611 65.659,172.184 66.013 C 171.755 66.369,171.600 66.375,171.600 66.036 C 171.600 65.297,109.931 65.605,109.685 66.345 C 109.582 66.653,109.393 66.724,109.252 66.508 C 108.963 66.069,106.596 65.537,106.291 65.842 M223.045 66.228 C 222.913 66.571,222.630 66.742,222.416 66.610 C 222.164 66.454,222.022 111.429,222.013 194.385 C 222.006 264.793,222.150 322.400,222.333 322.400 C 222.517 322.400,222.667 322.662,222.667 322.982 C 222.667 323.303,222.545 323.490,222.396 323.398 C 222.248 323.306,222.143 325.458,222.163 328.181 C 222.195 332.397,222.284 333.062,222.765 332.666 C 223.248 332.268,223.256 332.341,222.820 333.159 C 222.350 334.040,222.376 334.100,223.135 333.901 C 223.590 333.782,224.047 333.891,224.150 334.142 C 224.278 334.453,224.472 334.408,224.753 334.003 C 225.082 333.528,225.268 333.508,225.663 333.903 C 226.392 334.632,285.041 334.629,285.335 333.900 C 285.496 333.500,285.543 333.500,285.568 333.900 C 285.608 334.519,290.879 334.600,292.002 333.999 C 292.503 333.731,292.834 333.731,292.999 333.999 C 293.408 334.660,294.515 334.477,294.252 333.791 C 294.060 333.292,294.163 333.259,294.817 333.609 C 295.859 334.167,296.500 333.745,296.173 332.716 C 296.001 332.172,296.062 331.991,296.357 332.174 C 296.626 332.340,296.800 332.124,296.800 331.624 C 296.800 331.171,296.624 330.800,296.410 330.800 C 296.157 330.800,296.157 330.440,296.410 329.773 C 296.956 328.339,296.933 67.329,296.387 66.992 C 296.167 66.856,296.108 66.549,296.255 66.311 C 296.415 66.051,296.337 65.991,296.062 66.162 C 295.808 66.319,295.385 66.314,295.121 66.151 C 294.358 65.680,288.719 65.615,287.873 66.068 C 287.314 66.367,287.180 66.356,287.383 66.027 C 287.848 65.276,226.985 65.472,226.233 66.224 C 225.920 66.537,225.605 66.642,225.532 66.458 C 225.257 65.763,223.293 65.581,223.045 66.228 M181.406 74.410 C 181.545 74.635,181.511 74.794,181.330 74.763 C 180.532 74.624,180.337 74.842,180.780 75.376 C 181.043 75.693,181.515 75.854,181.829 75.733 C 182.143 75.613,182.400 75.604,182.400 75.714 C 182.400 76.269,181.145 76.287,180.598 75.741 C 180.116 75.258,180.078 74.988,180.435 74.558 C 180.988 73.891,181.077 73.878,181.406 74.410 M178.167 75.341 C 178.052 75.642,178.610 76.453,179.429 77.172 C 180.462 78.079,180.773 78.587,180.475 78.885 C 180.178 79.182,180.229 79.578,180.648 80.217 C 181.013 80.775,181.092 81.220,180.851 81.369 C 180.438 81.624,179.994 80.588,179.814 78.951 C 179.699 77.899,178.473 76.308,178.002 76.599 C 177.772 76.741,177.728 75.332,177.949 74.900 C 178.142 74.521,178.334 74.907,178.167 75.341 M182.744 81.200 C 182.744 81.578,182.617 81.504,182.400 81.000 C 182.211 80.560,182.056 79.930,182.056 79.600 C 182.056 79.222,182.183 79.296,182.400 79.800 C 182.589 80.240,182.744 80.870,182.744 81.200 M295.500 258.068 C 295.444 290.260,295.397 264.040,295.397 199.800 C 295.397 135.560,295.444 109.220,295.500 141.268 C 295.556 173.315,295.556 225.875,295.500 258.068 M182.949 320.883 C 182.675 321.327,181.600 321.280,181.600 320.825 C 181.600 320.619,181.948 320.476,182.372 320.508 C 182.797 320.540,183.056 320.709,182.949 320.883 M179.467 322.182 C 179.467 322.503,179.329 322.680,179.161 322.576 C 178.553 322.200,178.439 323.100,179.000 323.841 C 179.316 324.258,179.577 324.780,179.581 325.000 C 179.584 325.220,179.210 324.812,178.750 324.093 C 178.073 323.037,178.007 322.673,178.406 322.193 C 179.031 321.439,179.467 321.435,179.467 322.182 M182.588 326.820 C 182.207 327.435,182.728 327.832,183.242 327.318 C 183.529 327.031,183.536 326.807,183.262 326.639 C 183.039 326.500,182.735 326.582,182.588 326.820 M107.800 328.000 C 108.198 328.440,108.434 328.800,108.323 328.800 C 108.213 328.800,107.707 328.440,107.200 328.000 C 106.693 327.560,106.457 327.200,106.677 327.200 C 106.896 327.200,107.402 327.560,107.800 328.000 M293.062 330.183 C 292.932 330.522,292.549 330.800,292.213 330.800 C 291.694 330.800,291.708 330.687,292.300 330.067 C 293.098 329.231,293.409 329.279,293.062 330.183 M155.100 332.300 C 148.995 332.362,139.005 332.362,132.900 332.300 C 126.795 332.238,131.790 332.187,144.000 332.187 C 156.210 332.187,161.205 332.238,155.100 332.300 M267.500 332.300 C 261.395 332.362,251.405 332.362,245.300 332.300 C 239.195 332.238,244.190 332.187,256.400 332.187 C 268.610 332.187,273.605 332.238,267.500 332.300 M166.183 333.172 C 166.309 333.377,166.202 333.675,165.945 333.834 C 165.653 334.014,165.584 333.950,165.760 333.665 C 165.971 333.323,160.423 333.180,143.922 333.100 L 121.800 332.993 143.876 332.897 C 157.183 332.838,166.044 332.948,166.183 333.172 M270.800 333.090 C 250.744 333.368,234.093 333.372,234.262 333.100 C 234.364 332.935,244.382 332.841,256.524 332.891 C 268.666 332.941,275.090 333.031,270.800 333.090 M120.100 333.489 C 119.385 333.578,118.215 333.578,117.500 333.489 C 116.785 333.401,117.370 333.328,118.800 333.328 C 120.230 333.328,120.815 333.401,120.100 333.489 M284.300 333.476 C 283.915 333.576,283.285 333.576,282.900 333.476 C 282.515 333.375,282.830 333.293,283.600 333.293 C 284.370 333.293,284.685 333.375,284.300 333.476 " stroke="none" fill="#b4b4b4" fill-rule="evenodd"></path><path id="path1" d="M108.000 65.895 C 108.550 65.997,109.132 66.288,109.294 66.540 C 109.513 66.883,109.589 66.880,109.594 66.529 C 109.597 66.270,109.915 65.976,110.300 65.876 C 110.685 65.775,110.100 65.696,109.000 65.701 C 107.900 65.705,107.450 65.793,108.000 65.895 M174.000 65.755 C 174.000 65.840,174.530 65.987,175.179 66.082 C 175.827 66.177,176.267 66.108,176.155 65.928 C 175.957 65.607,174.000 65.450,174.000 65.755 M224.600 65.893 C 225.040 66.003,225.490 66.232,225.600 66.402 C 225.710 66.572,226.032 66.461,226.316 66.156 C 226.750 65.688,226.591 65.607,225.316 65.646 C 224.438 65.673,224.137 65.777,224.600 65.893 M291.700 65.876 C 292.085 65.976,292.715 65.976,293.100 65.876 C 293.485 65.775,293.170 65.693,292.400 65.693 C 291.630 65.693,291.315 65.775,291.700 65.876 M104.080 66.480 C 103.380 67.180,103.492 67.558,104.380 67.492 C 104.936 67.450,105.046 67.296,104.763 66.955 C 104.493 66.630,104.532 66.412,104.883 66.270 C 105.167 66.156,105.211 66.049,104.980 66.032 C 104.749 66.014,104.344 66.216,104.080 66.480 M222.160 67.019 C 222.019 67.579,222.016 68.149,222.152 68.285 C 222.288 68.422,222.400 68.179,222.400 67.747 C 222.400 67.314,222.616 66.744,222.880 66.480 C 223.245 66.115,223.247 66.000,222.888 66.000 C 222.628 66.000,222.300 66.458,222.160 67.019 M103.293 69.200 C 103.293 69.970,103.375 70.285,103.476 69.900 C 103.576 69.515,103.576 68.885,103.476 68.500 C 103.375 68.115,103.293 68.430,103.293 69.200 M178.705 72.283 C 179.202 72.379,179.922 72.375,180.305 72.275 C 180.687 72.175,180.280 72.096,179.400 72.101 C 178.520 72.105,178.207 72.187,178.705 72.283 M180.370 73.500 L 179.400 74.600 180.496 73.634 C 181.465 72.780,181.716 72.725,182.663 73.156 C 183.617 73.591,183.678 73.576,183.218 73.022 C 182.451 72.098,181.459 72.265,180.370 73.500 M180.435 74.558 C 180.078 74.988,180.116 75.258,180.598 75.741 C 181.145 76.287,182.400 76.269,182.400 75.714 C 182.400 75.604,182.143 75.613,181.829 75.733 C 181.515 75.854,181.043 75.693,180.780 75.376 C 180.337 74.842,180.532 74.624,181.330 74.763 C 181.511 74.794,181.545 74.635,181.406 74.410 C 181.077 73.878,180.988 73.891,180.435 74.558 M177.949 74.900 C 177.728 75.332,177.772 76.741,178.002 76.599 C 178.473 76.308,179.699 77.899,179.814 78.951 C 179.994 80.588,180.438 81.624,180.851 81.369 C 181.092 81.220,181.013 80.775,180.648 80.217 C 180.229 79.578,180.178 79.182,180.475 78.885 C 180.773 78.587,180.462 78.079,179.429 77.172 C 178.610 76.453,178.052 75.642,178.167 75.341 C 178.334 74.907,178.142 74.521,177.949 74.900 M183.846 80.900 C 184.195 85.265,184.400 85.327,184.400 81.067 C 184.400 78.969,184.238 77.600,183.991 77.600 C 183.723 77.600,183.673 78.744,183.846 80.900 M103.397 198.600 C 103.397 265.040,103.444 292.160,103.500 258.868 C 103.556 225.575,103.556 171.215,103.500 138.068 C 103.444 104.920,103.397 132.160,103.397 198.600 M182.056 79.600 C 182.056 79.930,182.211 80.560,182.400 81.000 C 182.617 81.504,182.744 81.578,182.744 81.200 C 182.744 80.870,182.589 80.240,182.400 79.800 C 182.183 79.296,182.056 79.222,182.056 79.600 M295.397 199.800 C 295.397 264.040,295.444 290.260,295.500 258.068 C 295.556 225.875,295.556 173.315,295.500 141.268 C 295.444 109.220,295.397 135.560,295.397 199.800 M183.837 318.009 C 183.684 319.158,183.743 320.314,183.973 320.709 C 184.272 321.223,184.379 320.708,184.388 318.700 C 184.402 315.494,184.203 315.244,183.837 318.009 M222.093 320.800 C 222.093 321.570,222.175 321.885,222.276 321.500 C 222.376 321.115,222.376 320.485,222.276 320.100 C 222.175 319.715,222.093 320.030,222.093 320.800 M181.600 320.825 C 181.600 321.280,182.675 321.327,182.949 320.883 C 183.056 320.709,182.797 320.540,182.372 320.508 C 181.948 320.476,181.600 320.619,181.600 320.825 M178.406 322.193 C 178.007 322.673,178.073 323.037,178.750 324.093 C 179.210 324.812,179.584 325.220,179.581 325.000 C 179.577 324.780,179.316 324.258,179.000 323.841 C 178.439 323.100,178.553 322.200,179.161 322.576 C 179.329 322.680,179.467 322.503,179.467 322.182 C 179.467 321.435,179.031 321.439,178.406 322.193 M182.661 326.240 C 182.254 326.798,182.029 327.362,182.161 327.494 C 182.292 327.626,182.400 327.523,182.400 327.267 C 182.400 327.010,182.600 326.845,182.845 326.900 C 183.090 326.955,183.359 326.595,183.443 326.100 C 183.633 324.977,183.573 324.987,182.661 326.240 M107.200 328.000 C 107.707 328.440,108.213 328.800,108.323 328.800 C 108.434 328.800,108.198 328.440,107.800 328.000 C 107.402 327.560,106.896 327.200,106.677 327.200 C 106.457 327.200,106.693 327.560,107.200 328.000 M103.238 329.000 C 103.224 329.660,103.344 329.996,103.506 329.746 C 103.668 329.497,104.160 329.203,104.600 329.093 C 105.349 328.905,105.345 328.890,104.533 328.846 C 104.057 328.821,103.576 328.575,103.465 328.300 C 103.354 328.025,103.252 328.340,103.238 329.000 M292.300 330.067 C 291.708 330.687,291.694 330.800,292.213 330.800 C 292.549 330.800,292.932 330.522,293.062 330.183 C 293.409 329.279,293.098 329.231,292.300 330.067 M103.867 331.067 C 103.371 331.563,103.596 332.699,104.300 333.251 C 104.941 333.754,104.952 333.739,104.424 333.068 C 103.965 332.484,103.946 332.179,104.327 331.568 C 104.779 330.845,104.448 330.486,103.867 331.067 M132.900 332.300 C 139.005 332.362,148.995 332.362,155.100 332.300 C 161.205 332.238,156.210 332.187,144.000 332.187 C 131.790 332.187,126.795 332.238,132.900 332.300 M245.300 332.300 C 251.405 332.362,261.395 332.362,267.500 332.300 C 273.605 332.238,268.610 332.187,256.400 332.187 C 244.190 332.187,239.195 332.238,245.300 332.300 M296.000 332.333 C 296.000 332.590,295.775 332.755,295.500 332.700 C 295.225 332.645,295.052 332.847,295.116 333.149 C 295.196 333.526,295.009 333.613,294.516 333.425 C 293.939 333.205,293.898 333.251,294.304 333.661 C 294.712 334.071,294.977 334.001,295.682 333.296 C 296.163 332.815,296.431 332.297,296.278 332.144 C 296.125 331.992,296.000 332.077,296.000 332.333 M143.922 333.100 C 160.423 333.180,165.971 333.323,165.760 333.665 C 165.584 333.950,165.653 334.014,165.945 333.834 C 167.407 332.930,164.487 332.806,143.876 332.897 L 121.800 332.993 143.922 333.100 M176.588 333.220 C 176.207 333.835,176.728 334.232,177.242 333.718 C 177.529 333.431,177.536 333.207,177.262 333.039 C 177.039 332.900,176.735 332.982,176.588 333.220 M234.262 333.100 C 234.093 333.372,250.744 333.368,270.800 333.090 C 275.090 333.031,268.666 332.941,256.524 332.891 C 244.382 332.841,234.364 332.935,234.262 333.100 M109.100 333.476 C 108.175 333.717,108.200 334.400,109.133 334.400 C 109.537 334.400,109.867 334.130,109.867 333.800 C 109.867 333.470,109.852 333.221,109.833 333.246 C 109.815 333.272,109.485 333.375,109.100 333.476 M117.500 333.489 C 118.215 333.578,119.385 333.578,120.100 333.489 C 120.815 333.401,120.230 333.328,118.800 333.328 C 117.370 333.328,116.785 333.401,117.500 333.489 M282.900 333.476 C 283.285 333.576,283.915 333.576,284.300 333.476 C 284.685 333.375,284.370 333.293,283.600 333.293 C 282.830 333.293,282.515 333.375,282.900 333.476 " stroke="none" fill="#b8b4b4" fill-rule="evenodd"></path><path id="path2" d="M108.000 65.895 C 108.550 65.997,109.132 66.288,109.294 66.540 C 109.513 66.883,109.589 66.880,109.594 66.529 C 109.597 66.270,109.915 65.976,110.300 65.876 C 110.685 65.775,110.100 65.696,109.000 65.701 C 107.900 65.705,107.450 65.793,108.000 65.895 M174.000 65.755 C 174.000 65.840,174.530 65.987,175.179 66.082 C 175.827 66.177,176.267 66.108,176.155 65.928 C 175.957 65.607,174.000 65.450,174.000 65.755 M224.600 65.893 C 225.040 66.003,225.490 66.232,225.600 66.402 C 225.710 66.572,226.032 66.461,226.316 66.156 C 226.750 65.688,226.591 65.607,225.316 65.646 C 224.438 65.673,224.137 65.777,224.600 65.893 M291.700 65.876 C 292.085 65.976,292.715 65.976,293.100 65.876 C 293.485 65.775,293.170 65.693,292.400 65.693 C 291.630 65.693,291.315 65.775,291.700 65.876 M104.080 66.480 C 103.380 67.180,103.492 67.558,104.380 67.492 C 104.936 67.450,105.046 67.296,104.763 66.955 C 104.493 66.630,104.532 66.412,104.883 66.270 C 105.167 66.156,105.211 66.049,104.980 66.032 C 104.749 66.014,104.344 66.216,104.080 66.480 M222.160 67.019 C 222.019 67.579,222.016 68.149,222.152 68.285 C 222.288 68.422,222.400 68.179,222.400 67.747 C 222.400 67.314,222.616 66.744,222.880 66.480 C 223.245 66.115,223.247 66.000,222.888 66.000 C 222.628 66.000,222.300 66.458,222.160 67.019 M103.293 69.200 C 103.293 69.970,103.375 70.285,103.476 69.900 C 103.576 69.515,103.576 68.885,103.476 68.500 C 103.375 68.115,103.293 68.430,103.293 69.200 M178.705 72.283 C 179.202 72.379,179.922 72.375,180.305 72.275 C 180.687 72.175,180.280 72.096,179.400 72.101 C 178.520 72.105,178.207 72.187,178.705 72.283 M180.370 73.500 L 179.400 74.600 180.496 73.634 C 181.465 72.780,181.716 72.725,182.663 73.156 C 183.617 73.591,183.678 73.576,183.218 73.022 C 182.451 72.098,181.459 72.265,180.370 73.500 M180.435 74.558 C 180.078 74.988,180.116 75.258,180.598 75.741 C 181.145 76.287,182.400 76.269,182.400 75.714 C 182.400 75.604,182.143 75.613,181.829 75.733 C 181.515 75.854,181.043 75.693,180.780 75.376 C 180.337 74.842,180.532 74.624,181.330 74.763 C 181.511 74.794,181.545 74.635,181.406 74.410 C 181.077 73.878,180.988 73.891,180.435 74.558 M177.949 74.900 C 177.728 75.332,177.772 76.741,178.002 76.599 C 178.473 76.308,179.699 77.899,179.814 78.951 C 179.994 80.588,180.438 81.624,180.851 81.369 C 181.092 81.220,181.013 80.775,180.648 80.217 C 180.229 79.578,180.178 79.182,180.475 78.885 C 180.773 78.587,180.462 78.079,179.429 77.172 C 178.610 76.453,178.052 75.642,178.167 75.341 C 178.334 74.907,178.142 74.521,177.949 74.900 M183.846 80.900 C 184.195 85.265,184.400 85.327,184.400 81.067 C 184.400 78.969,184.238 77.600,183.991 77.600 C 183.723 77.600,183.673 78.744,183.846 80.900 M103.397 198.600 C 103.397 265.040,103.444 292.160,103.500 258.868 C 103.556 225.575,103.556 171.215,103.500 138.068 C 103.444 104.920,103.397 132.160,103.397 198.600 M182.056 79.600 C 182.056 79.930,182.211 80.560,182.400 81.000 C 182.617 81.504,182.744 81.578,182.744 81.200 C 182.744 80.870,182.589 80.240,182.400 79.800 C 182.183 79.296,182.056 79.222,182.056 79.600 M295.397 199.800 C 295.397 264.040,295.444 290.260,295.500 258.068 C 295.556 225.875,295.556 173.315,295.500 141.268 C 295.444 109.220,295.397 135.560,295.397 199.800 M183.837 318.009 C 183.684 319.158,183.743 320.314,183.973 320.709 C 184.272 321.223,184.379 320.708,184.388 318.700 C 184.402 315.494,184.203 315.244,183.837 318.009 M222.093 320.800 C 222.093 321.570,222.175 321.885,222.276 321.500 C 222.376 321.115,222.376 320.485,222.276 320.100 C 222.175 319.715,222.093 320.030,222.093 320.800 M181.600 320.825 C 181.600 321.280,182.675 321.327,182.949 320.883 C 183.056 320.709,182.797 320.540,182.372 320.508 C 181.948 320.476,181.600 320.619,181.600 320.825 M178.406 322.193 C 178.007 322.673,178.073 323.037,178.750 324.093 C 179.210 324.812,179.584 325.220,179.581 325.000 C 179.577 324.780,179.316 324.258,179.000 323.841 C 178.439 323.100,178.553 322.200,179.161 322.576 C 179.329 322.680,179.467 322.503,179.467 322.182 C 179.467 321.435,179.031 321.439,178.406 322.193 M182.661 326.240 C 182.254 326.798,182.029 327.362,182.161 327.494 C 182.292 327.626,182.400 327.523,182.400 327.267 C 182.400 327.010,182.600 326.845,182.845 326.900 C 183.090 326.955,183.359 326.595,183.443 326.100 C 183.633 324.977,183.573 324.987,182.661 326.240 M107.200 328.000 C 107.707 328.440,108.213 328.800,108.323 328.800 C 108.434 328.800,108.198 328.440,107.800 328.000 C 107.402 327.560,106.896 327.200,106.677 327.200 C 106.457 327.200,106.693 327.560,107.200 328.000 M103.238 329.000 C 103.224 329.660,103.344 329.996,103.506 329.746 C 103.668 329.497,104.160 329.203,104.600 329.093 C 105.349 328.905,105.345 328.890,104.533 328.846 C 104.057 328.821,103.576 328.575,103.465 328.300 C 103.354 328.025,103.252 328.340,103.238 329.000 M292.300 330.067 C 291.708 330.687,291.694 330.800,292.213 330.800 C 292.549 330.800,292.932 330.522,293.062 330.183 C 293.409 329.279,293.098 329.231,292.300 330.067 M103.867 331.067 C 103.371 331.563,103.596 332.699,104.300 333.251 C 104.941 333.754,104.952 333.739,104.424 333.068 C 103.965 332.484,103.946 332.179,104.327 331.568 C 104.779 330.845,104.448 330.486,103.867 331.067 M132.900 332.300 C 139.005 332.362,148.995 332.362,155.100 332.300 C 161.205 332.238,156.210 332.187,144.000 332.187 C 131.790 332.187,126.795 332.238,132.900 332.300 M245.300 332.300 C 251.405 332.362,261.395 332.362,267.500 332.300 C 273.605 332.238,268.610 332.187,256.400 332.187 C 244.190 332.187,239.195 332.238,245.300 332.300 M296.000 332.333 C 296.000 332.590,295.775 332.755,295.500 332.700 C 295.225 332.645,295.052 332.847,295.116 333.149 C 295.196 333.526,295.009 333.613,294.516 333.425 C 293.939 333.205,293.898 333.251,294.304 333.661 C 294.712 334.071,294.977 334.001,295.682 333.296 C 296.163 332.815,296.431 332.297,296.278 332.144 C 296.125 331.992,296.000 332.077,296.000 332.333 M143.922 333.100 C 160.423 333.180,165.971 333.323,165.760 333.665 C 165.584 333.950,165.653 334.014,165.945 333.834 C 167.407 332.930,164.487 332.806,143.876 332.897 L 121.800 332.993 143.922 333.100 M176.588 333.220 C 176.207 333.835,176.728 334.232,177.242 333.718 C 177.529 333.431,177.536 333.207,177.262 333.039 C 177.039 332.900,176.735 332.982,176.588 333.220 M234.262 333.100 C 234.093 333.372,250.744 333.368,270.800 333.090 C 275.090 333.031,268.666 332.941,256.524 332.891 C 244.382 332.841,234.364 332.935,234.262 333.100 M109.100 333.476 C 108.175 333.717,108.200 334.400,109.133 334.400 C 109.537 334.400,109.867 334.130,109.867 333.800 C 109.867 333.470,109.852 333.221,109.833 333.246 C 109.815 333.272,109.485 333.375,109.100 333.476 M117.500 333.489 C 118.215 333.578,119.385 333.578,120.100 333.489 C 120.815 333.401,120.230 333.328,118.800 333.328 C 117.370 333.328,116.785 333.401,117.500 333.489 M282.900 333.476 C 283.285 333.576,283.915 333.576,284.300 333.476 C 284.685 333.375,284.370 333.293,283.600 333.293 C 282.830 333.293,282.515 333.375,282.900 333.476 " stroke="none" fill="#b8b4b4" fill-rule="evenodd"></path><path id="path3" d="M108.000 65.895 C 108.550 65.997,109.132 66.288,109.294 66.540 C 109.513 66.883,109.589 66.880,109.594 66.529 C 109.597 66.270,109.915 65.976,110.300 65.876 C 110.685 65.775,110.100 65.696,109.000 65.701 C 107.900 65.705,107.450 65.793,108.000 65.895 M174.000 65.755 C 174.000 65.840,174.530 65.987,175.179 66.082 C 175.827 66.177,176.267 66.108,176.155 65.928 C 175.957 65.607,174.000 65.450,174.000 65.755 M224.600 65.893 C 225.040 66.003,225.490 66.232,225.600 66.402 C 225.710 66.572,226.032 66.461,226.316 66.156 C 226.750 65.688,226.591 65.607,225.316 65.646 C 224.438 65.673,224.137 65.777,224.600 65.893 M291.700 65.876 C 292.085 65.976,292.715 65.976,293.100 65.876 C 293.485 65.775,293.170 65.693,292.400 65.693 C 291.630 65.693,291.315 65.775,291.700 65.876 M104.080 66.480 C 103.380 67.180,103.492 67.558,104.380 67.492 C 104.936 67.450,105.046 67.296,104.763 66.955 C 104.493 66.630,104.532 66.412,104.883 66.270 C 105.167 66.156,105.211 66.049,104.980 66.032 C 104.749 66.014,104.344 66.216,104.080 66.480 M222.160 67.019 C 222.019 67.579,222.016 68.149,222.152 68.285 C 222.288 68.422,222.400 68.179,222.400 67.747 C 222.400 67.314,222.616 66.744,222.880 66.480 C 223.245 66.115,223.247 66.000,222.888 66.000 C 222.628 66.000,222.300 66.458,222.160 67.019 M103.293 69.200 C 103.293 69.970,103.375 70.285,103.476 69.900 C 103.576 69.515,103.576 68.885,103.476 68.500 C 103.375 68.115,103.293 68.430,103.293 69.200 M178.705 72.283 C 179.202 72.379,179.922 72.375,180.305 72.275 C 180.687 72.175,180.280 72.096,179.400 72.101 C 178.520 72.105,178.207 72.187,178.705 72.283 M180.370 73.500 L 179.400 74.600 180.496 73.634 C 181.465 72.780,181.716 72.725,182.663 73.156 C 183.617 73.591,183.678 73.576,183.218 73.022 C 182.451 72.098,181.459 72.265,180.370 73.500 M180.435 74.558 C 180.078 74.988,180.116 75.258,180.598 75.741 C 181.145 76.287,182.400 76.269,182.400 75.714 C 182.400 75.604,182.143 75.613,181.829 75.733 C 181.515 75.854,181.043 75.693,180.780 75.376 C 180.337 74.842,180.532 74.624,181.330 74.763 C 181.511 74.794,181.545 74.635,181.406 74.410 C 181.077 73.878,180.988 73.891,180.435 74.558 M177.949 74.900 C 177.728 75.332,177.772 76.741,178.002 76.599 C 178.473 76.308,179.699 77.899,179.814 78.951 C 179.994 80.588,180.438 81.624,180.851 81.369 C 181.092 81.220,181.013 80.775,180.648 80.217 C 180.229 79.578,180.178 79.182,180.475 78.885 C 180.773 78.587,180.462 78.079,179.429 77.172 C 178.610 76.453,178.052 75.642,178.167 75.341 C 178.334 74.907,178.142 74.521,177.949 74.900 M183.846 80.900 C 184.195 85.265,184.400 85.327,184.400 81.067 C 184.400 78.969,184.238 77.600,183.991 77.600 C 183.723 77.600,183.673 78.744,183.846 80.900 M103.397 198.600 C 103.397 265.040,103.444 292.160,103.500 258.868 C 103.556 225.575,103.556 171.215,103.500 138.068 C 103.444 104.920,103.397 132.160,103.397 198.600 M182.056 79.600 C 182.056 79.930,182.211 80.560,182.400 81.000 C 182.617 81.504,182.744 81.578,182.744 81.200 C 182.744 80.870,182.589 80.240,182.400 79.800 C 182.183 79.296,182.056 79.222,182.056 79.600 M295.397 199.800 C 295.397 264.040,295.444 290.260,295.500 258.068 C 295.556 225.875,295.556 173.315,295.500 141.268 C 295.444 109.220,295.397 135.560,295.397 199.800 M183.837 318.009 C 183.684 319.158,183.743 320.314,183.973 320.709 C 184.272 321.223,184.379 320.708,184.388 318.700 C 184.402 315.494,184.203 315.244,183.837 318.009 M222.093 320.800 C 222.093 321.570,222.175 321.885,222.276 321.500 C 222.376 321.115,222.376 320.485,222.276 320.100 C 222.175 319.715,222.093 320.030,222.093 320.800 M181.600 320.825 C 181.600 321.280,182.675 321.327,182.949 320.883 C 183.056 320.709,182.797 320.540,182.372 320.508 C 181.948 320.476,181.600 320.619,181.600 320.825 M178.406 322.193 C 178.007 322.673,178.073 323.037,178.750 324.093 C 179.210 324.812,179.584 325.220,179.581 325.000 C 179.577 324.780,179.316 324.258,179.000 323.841 C 178.439 323.100,178.553 322.200,179.161 322.576 C 179.329 322.680,179.467 322.503,179.467 322.182 C 179.467 321.435,179.031 321.439,178.406 322.193 M182.661 326.240 C 182.254 326.798,182.029 327.362,182.161 327.494 C 182.292 327.626,182.400 327.523,182.400 327.267 C 182.400 327.010,182.600 326.845,182.845 326.900 C 183.090 326.955,183.359 326.595,183.443 326.100 C 183.633 324.977,183.573 324.987,182.661 326.240 M107.200 328.000 C 107.707 328.440,108.213 328.800,108.323 328.800 C 108.434 328.800,108.198 328.440,107.800 328.000 C 107.402 327.560,106.896 327.200,106.677 327.200 C 106.457 327.200,106.693 327.560,107.200 328.000 M103.238 329.000 C 103.224 329.660,103.344 329.996,103.506 329.746 C 103.668 329.497,104.160 329.203,104.600 329.093 C 105.349 328.905,105.345 328.890,104.533 328.846 C 104.057 328.821,103.576 328.575,103.465 328.300 C 103.354 328.025,103.252 328.340,103.238 329.000 M292.300 330.067 C 291.708 330.687,291.694 330.800,292.213 330.800 C 292.549 330.800,292.932 330.522,293.062 330.183 C 293.409 329.279,293.098 329.231,292.300 330.067 M103.867 331.067 C 103.371 331.563,103.596 332.699,104.300 333.251 C 104.941 333.754,104.952 333.739,104.424 333.068 C 103.965 332.484,103.946 332.179,104.327 331.568 C 104.779 330.845,104.448 330.486,103.867 331.067 M132.900 332.300 C 139.005 332.362,148.995 332.362,155.100 332.300 C 161.205 332.238,156.210 332.187,144.000 332.187 C 131.790 332.187,126.795 332.238,132.900 332.300 M245.300 332.300 C 251.405 332.362,261.395 332.362,267.500 332.300 C 273.605 332.238,268.610 332.187,256.400 332.187 C 244.190 332.187,239.195 332.238,245.300 332.300 M296.000 332.333 C 296.000 332.590,295.775 332.755,295.500 332.700 C 295.225 332.645,295.052 332.847,295.116 333.149 C 295.196 333.526,295.009 333.613,294.516 333.425 C 293.939 333.205,293.898 333.251,294.304 333.661 C 294.712 334.071,294.977 334.001,295.682 333.296 C 296.163 332.815,296.431 332.297,296.278 332.144 C 296.125 331.992,296.000 332.077,296.000 332.333 M143.922 333.100 C 160.423 333.180,165.971 333.323,165.760 333.665 C 165.584 333.950,165.653 334.014,165.945 333.834 C 167.407 332.930,164.487 332.806,143.876 332.897 L 121.800 332.993 143.922 333.100 M176.588 333.220 C 176.207 333.835,176.728 334.232,177.242 333.718 C 177.529 333.431,177.536 333.207,177.262 333.039 C 177.039 332.900,176.735 332.982,176.588 333.220 M234.262 333.100 C 234.093 333.372,250.744 333.368,270.800 333.090 C 275.090 333.031,268.666 332.941,256.524 332.891 C 244.382 332.841,234.364 332.935,234.262 333.100 M109.100 333.476 C 108.175 333.717,108.200 334.400,109.133 334.400 C 109.537 334.400,109.867 334.130,109.867 333.800 C 109.867 333.470,109.852 333.221,109.833 333.246 C 109.815 333.272,109.485 333.375,109.100 333.476 M117.500 333.489 C 118.215 333.578,119.385 333.578,120.100 333.489 C 120.815 333.401,120.230 333.328,118.800 333.328 C 117.370 333.328,116.785 333.401,117.500 333.489 M282.900 333.476 C 283.285 333.576,283.915 333.576,284.300 333.476 C 284.685 333.375,284.370 333.293,283.600 333.293 C 282.830 333.293,282.515 333.375,282.900 333.476 " stroke="none" fill="#b8b4b4" fill-rule="evenodd"></path><path id="path4" d="M108.000 65.895 C 108.550 65.997,109.132 66.288,109.294 66.540 C 109.513 66.883,109.589 66.880,109.594 66.529 C 109.597 66.270,109.915 65.976,110.300 65.876 C 110.685 65.775,110.100 65.696,109.000 65.701 C 107.900 65.705,107.450 65.793,108.000 65.895 M174.000 65.755 C 174.000 65.840,174.530 65.987,175.179 66.082 C 175.827 66.177,176.267 66.108,176.155 65.928 C 175.957 65.607,174.000 65.450,174.000 65.755 M224.600 65.893 C 225.040 66.003,225.490 66.232,225.600 66.402 C 225.710 66.572,226.032 66.461,226.316 66.156 C 226.750 65.688,226.591 65.607,225.316 65.646 C 224.438 65.673,224.137 65.777,224.600 65.893 M291.700 65.876 C 292.085 65.976,292.715 65.976,293.100 65.876 C 293.485 65.775,293.170 65.693,292.400 65.693 C 291.630 65.693,291.315 65.775,291.700 65.876 M104.080 66.480 C 103.380 67.180,103.492 67.558,104.380 67.492 C 104.936 67.450,105.046 67.296,104.763 66.955 C 104.493 66.630,104.532 66.412,104.883 66.270 C 105.167 66.156,105.211 66.049,104.980 66.032 C 104.749 66.014,104.344 66.216,104.080 66.480 M222.160 67.019 C 222.019 67.579,222.016 68.149,222.152 68.285 C 222.288 68.422,222.400 68.179,222.400 67.747 C 222.400 67.314,222.616 66.744,222.880 66.480 C 223.245 66.115,223.247 66.000,222.888 66.000 C 222.628 66.000,222.300 66.458,222.160 67.019 M103.293 69.200 C 103.293 69.970,103.375 70.285,103.476 69.900 C 103.576 69.515,103.576 68.885,103.476 68.500 C 103.375 68.115,103.293 68.430,103.293 69.200 M178.705 72.283 C 179.202 72.379,179.922 72.375,180.305 72.275 C 180.687 72.175,180.280 72.096,179.400 72.101 C 178.520 72.105,178.207 72.187,178.705 72.283 M180.370 73.500 L 179.400 74.600 180.496 73.634 C 181.465 72.780,181.716 72.725,182.663 73.156 C 183.617 73.591,183.678 73.576,183.218 73.022 C 182.451 72.098,181.459 72.265,180.370 73.500 M180.435 74.558 C 180.078 74.988,180.116 75.258,180.598 75.741 C 181.145 76.287,182.400 76.269,182.400 75.714 C 182.400 75.604,182.143 75.613,181.829 75.733 C 181.515 75.854,181.043 75.693,180.780 75.376 C 180.337 74.842,180.532 74.624,181.330 74.763 C 181.511 74.794,181.545 74.635,181.406 74.410 C 181.077 73.878,180.988 73.891,180.435 74.558 M177.949 74.900 C 177.728 75.332,177.772 76.741,178.002 76.599 C 178.473 76.308,179.699 77.899,179.814 78.951 C 179.994 80.588,180.438 81.624,180.851 81.369 C 181.092 81.220,181.013 80.775,180.648 80.217 C 180.229 79.578,180.178 79.182,180.475 78.885 C 180.773 78.587,180.462 78.079,179.429 77.172 C 178.610 76.453,178.052 75.642,178.167 75.341 C 178.334 74.907,178.142 74.521,177.949 74.900 M183.846 80.900 C 184.195 85.265,184.400 85.327,184.400 81.067 C 184.400 78.969,184.238 77.600,183.991 77.600 C 183.723 77.600,183.673 78.744,183.846 80.900 M103.397 198.600 C 103.397 265.040,103.444 292.160,103.500 258.868 C 103.556 225.575,103.556 171.215,103.500 138.068 C 103.444 104.920,103.397 132.160,103.397 198.600 M182.056 79.600 C 182.056 79.930,182.211 80.560,182.400 81.000 C 182.617 81.504,182.744 81.578,182.744 81.200 C 182.744 80.870,182.589 80.240,182.400 79.800 C 182.183 79.296,182.056 79.222,182.056 79.600 M295.397 199.800 C 295.397 264.040,295.444 290.260,295.500 258.068 C 295.556 225.875,295.556 173.315,295.500 141.268 C 295.444 109.220,295.397 135.560,295.397 199.800 M183.837 318.009 C 183.684 319.158,183.743 320.314,183.973 320.709 C 184.272 321.223,184.379 320.708,184.388 318.700 C 184.402 315.494,184.203 315.244,183.837 318.009 M222.093 320.800 C 222.093 321.570,222.175 321.885,222.276 321.500 C 222.376 321.115,222.376 320.485,222.276 320.100 C 222.175 319.715,222.093 320.030,222.093 320.800 M181.600 320.825 C 181.600 321.280,182.675 321.327,182.949 320.883 C 183.056 320.709,182.797 320.540,182.372 320.508 C 181.948 320.476,181.600 320.619,181.600 320.825 M178.406 322.193 C 178.007 322.673,178.073 323.037,178.750 324.093 C 179.210 324.812,179.584 325.220,179.581 325.000 C 179.577 324.780,179.316 324.258,179.000 323.841 C 178.439 323.100,178.553 322.200,179.161 322.576 C 179.329 322.680,179.467 322.503,179.467 322.182 C 179.467 321.435,179.031 321.439,178.406 322.193 M182.661 326.240 C 182.254 326.798,182.029 327.362,182.161 327.494 C 182.292 327.626,182.400 327.523,182.400 327.267 C 182.400 327.010,182.600 326.845,182.845 326.900 C 183.090 326.955,183.359 326.595,183.443 326.100 C 183.633 324.977,183.573 324.987,182.661 326.240 M107.200 328.000 C 107.707 328.440,108.213 328.800,108.323 328.800 C 108.434 328.800,108.198 328.440,107.800 328.000 C 107.402 327.560,106.896 327.200,106.677 327.200 C 106.457 327.200,106.693 327.560,107.200 328.000 M103.238 329.000 C 103.224 329.660,103.344 329.996,103.506 329.746 C 103.668 329.497,104.160 329.203,104.600 329.093 C 105.349 328.905,105.345 328.890,104.533 328.846 C 104.057 328.821,103.576 328.575,103.465 328.300 C 103.354 328.025,103.252 328.340,103.238 329.000 M292.300 330.067 C 291.708 330.687,291.694 330.800,292.213 330.800 C 292.549 330.800,292.932 330.522,293.062 330.183 C 293.409 329.279,293.098 329.231,292.300 330.067 M103.867 331.067 C 103.371 331.563,103.596 332.699,104.300 333.251 C 104.941 333.754,104.952 333.739,104.424 333.068 C 103.965 332.484,103.946 332.179,104.327 331.568 C 104.779 330.845,104.448 330.486,103.867 331.067 M132.900 332.300 C 139.005 332.362,148.995 332.362,155.100 332.300 C 161.205 332.238,156.210 332.187,144.000 332.187 C 131.790 332.187,126.795 332.238,132.900 332.300 M245.300 332.300 C 251.405 332.362,261.395 332.362,267.500 332.300 C 273.605 332.238,268.610 332.187,256.400 332.187 C 244.190 332.187,239.195 332.238,245.300 332.300 M296.000 332.333 C 296.000 332.590,295.775 332.755,295.500 332.700 C 295.225 332.645,295.052 332.847,295.116 333.149 C 295.196 333.526,295.009 333.613,294.516 333.425 C 293.939 333.205,293.898 333.251,294.304 333.661 C 294.712 334.071,294.977 334.001,295.682 333.296 C 296.163 332.815,296.431 332.297,296.278 332.144 C 296.125 331.992,296.000 332.077,296.000 332.333 M143.922 333.100 C 160.423 333.180,165.971 333.323,165.760 333.665 C 165.584 333.950,165.653 334.014,165.945 333.834 C 167.407 332.930,164.487 332.806,143.876 332.897 L 121.800 332.993 143.922 333.100 M176.588 333.220 C 176.207 333.835,176.728 334.232,177.242 333.718 C 177.529 333.431,177.536 333.207,177.262 333.039 C 177.039 332.900,176.735 332.982,176.588 333.220 M234.262 333.100 C 234.093 333.372,250.744 333.368,270.800 333.090 C 275.090 333.031,268.666 332.941,256.524 332.891 C 244.382 332.841,234.364 332.935,234.262 333.100 M109.100 333.476 C 108.175 333.717,108.200 334.400,109.133 334.400 C 109.537 334.400,109.867 334.130,109.867 333.800 C 109.867 333.470,109.852 333.221,109.833 333.246 C 109.815 333.272,109.485 333.375,109.100 333.476 M117.500 333.489 C 118.215 333.578,119.385 333.578,120.100 333.489 C 120.815 333.401,120.230 333.328,118.800 333.328 C 117.370 333.328,116.785 333.401,117.500 333.489 M282.900 333.476 C 283.285 333.576,283.915 333.576,284.300 333.476 C 284.685 333.375,284.370 333.293,283.600 333.293 C 282.830 333.293,282.515 333.375,282.900 333.476 " stroke="none" fill="#b8b4b4" fill-rule="evenodd"></path></g></svg>